<?xml version="1.0" encoding="UTF-8" standalone="no"?>
<!DOCTYPE svg PUBLIC "-//W3C//DTD SVG 1.1//EN" "http://www.w3.org/Graphics/SVG/1.1/DTD/svg11.dtd">
<svg width="100%" height="100%" viewBox="0 0 1656 1656" version="1.1" xmlns="http://www.w3.org/2000/svg" xmlns:xlink="http://www.w3.org/1999/xlink" xml:space="preserve" xmlns:serif="http://www.serif.com/" style="fill-rule:evenodd;clip-rule:evenodd;stroke-linejoin:round;stroke-miterlimit:2;">
    <g transform="matrix(1,0,0,1,-2319,-2096)">
        <g id="Artboard4" transform="matrix(1,0,0,1,1206,0)">
            <rect x="1113" y="2096" width="1656" height="1656" style="fill:none;"/>
            <g transform="matrix(3.77783,0,0,3.77783,-10546.5,-6231.49)">
                <g transform="matrix(1.89427,0,0,1.89427,1069.78,1671.2)">
                    <circle cx="1180.25" cy="397.134" r="109.134"/>
                </g>
                <g transform="matrix(1.66755,0,0,1.66755,1337.36,1761.24)">
                    <path d="M1074.21,423.05C1074.08,422.5 1074.19,421.92 1074.51,421.453C1074.83,420.987 1075.33,420.678 1075.89,420.602C1078.29,420.255 1081.92,419.612 1085.74,418.513C1086.79,418.202 1087.9,418.804 1088.21,419.859C1089.73,424.774 1094.21,437.946 1101.08,446.279C1101.75,447.08 1102.78,447.473 1103.81,447.313C1104.84,447.154 1105.7,446.465 1106.09,445.501C1109.93,435.953 1122.91,415.566 1160.64,431.344C1198.71,447.262 1199.59,499.934 1159.65,492.842C1159.38,492.794 1159.12,492.951 1159.03,493.212C1158.94,493.473 1159.06,493.758 1159.3,493.884C1161.02,494.719 1163.32,495.771 1166.18,496.946C1166.67,497.15 1167.01,497.595 1167.09,498.119C1167.17,498.643 1166.96,499.17 1166.56,499.507C1165.21,500.624 1163.36,502.116 1161.61,503.325C1160.56,504.008 1159.28,504.25 1158.06,504C1116.86,495.485 1084.13,463.716 1074.21,423.05ZM1130.26,477.411C1135.49,480.82 1151.7,488.485 1162.04,479.275C1170.99,471.304 1157.74,458.074 1150.69,453.478C1147.4,451.337 1129.84,440.57 1119.71,451.697C1113.78,458.203 1123.77,473.184 1130.26,477.411ZM1196.52,495.937C1196.29,495.074 1196.42,494.153 1196.89,493.395C1197.37,492.637 1198.14,492.111 1199.01,491.943C1205.56,490.682 1213.04,488.337 1218.45,483.974C1218.45,483.974 1219.49,478.549 1205.56,455.362C1195.93,439.323 1190.7,426.611 1188.4,420.299C1188.06,419.254 1188.22,418.109 1188.84,417.201C1189.46,416.293 1190.47,415.723 1191.56,415.66C1197.87,415.326 1209.6,414.929 1220.45,415.738C1221.99,415.863 1223.38,416.729 1224.16,418.062C1227.73,424.245 1237.89,443.201 1241.8,464.78C1241.95,465.63 1242.53,466.34 1243.34,466.651C1244.14,466.962 1245.05,466.829 1245.73,466.299C1256.26,457.873 1266.71,442.144 1272.49,416.945C1272.74,415.863 1273.79,415.168 1274.88,415.365C1278.09,416.017 1283.06,417.649 1285.61,419.367C1286.24,419.845 1286.54,420.647 1286.38,421.425C1285.48,425.751 1283.92,431.645 1281.35,438.276C1281.34,438.301 1281.33,438.326 1281.32,438.351C1275.41,452.792 1266.51,465.69 1255.37,476.266C1255.34,476.3 1255.3,476.333 1255.26,476.365C1253.62,477.829 1252.03,479.257 1250.47,480.648C1250.43,480.68 1250.4,480.711 1250.36,480.742C1236.85,492.087 1220.55,500.22 1202.65,503.961C1201.31,504.238 1199.93,503.627 1199.24,502.442C1198.06,500.433 1197.14,498.27 1196.52,495.937ZM1073.03,409.729C1072.03,409.828 1071.14,409.12 1071.01,408.131C1069.98,398.515 1067.09,350.935 1105.13,317.495C1105.17,317.459 1105.24,317.461 1105.28,317.499C1105.32,317.538 1105.33,317.601 1105.29,317.647C1104.44,318.868 1102.77,321.414 1101.19,324.794C1101.15,324.881 1101.18,324.985 1101.27,325.033C1101.35,325.081 1101.45,325.058 1101.51,324.979C1105.63,319.081 1120.09,299.858 1131.99,302.219C1136.87,303.188 1123.49,331.19 1121.94,344.568C1120.41,357.64 1117.41,375.673 1122.29,398.128C1122.37,398.525 1122.28,398.941 1122.04,399.265C1121.79,399.59 1121.42,399.791 1121.01,399.816C1118.34,400.02 1112.78,400.613 1107.45,402.235C1106.99,402.384 1106.47,402.318 1106.06,402.054C1105.64,401.791 1105.36,401.356 1105.3,400.868C1104.49,394.594 1102.21,374.846 1103.54,361.032C1105.14,344.413 1106.94,343.425 1108.59,336.999C1110.24,330.573 1110.26,325.428 1108.77,325.934C1107.04,326.519 1080.97,343.03 1083.63,405.498C1083.66,406.255 1083.23,406.955 1082.54,407.265C1080.86,408.002 1077.45,409.273 1073.03,409.729ZM1164.94,355.522C1165.23,354.195 1166.08,353.054 1167.26,352.387C1170.46,350.584 1176.9,346.957 1180.05,345.18C1180.42,344.97 1180.88,344.978 1181.24,345.199C1181.61,345.42 1181.83,345.821 1181.81,346.246C1181.39,355.976 1178.55,396.378 1160.63,399.164C1140.25,402.332 1131.71,366.154 1132.29,344.376C1132.87,322.598 1143.21,296.597 1173.74,288.886C1194.55,283.632 1189.55,303.407 1189.16,304.829C1189.16,304.856 1189.15,304.882 1189.14,304.909C1189.14,304.914 1186.37,315.981 1184.66,327.012C1184.43,328.588 1183.42,329.942 1181.97,330.618C1176.06,333.335 1159.84,340.504 1144.83,344.533C1144.83,344.533 1142.48,372.489 1155.61,370.833C1161.17,370.132 1163.8,360.734 1164.94,355.522ZM1150.77,320.052C1150.48,320.713 1150.6,321.481 1151.07,322.025C1151.55,322.569 1152.29,322.791 1152.98,322.596C1158.72,320.983 1163.83,319.368 1168.77,317.753C1170.23,317.272 1171.38,316.108 1171.84,314.631C1173.65,308.685 1174.61,301.028 1169.35,301.316C1159.98,301.83 1153.48,313.894 1150.77,320.052ZM1212.68,307.453C1211.57,309.578 1209.05,310.543 1206.8,309.707C1204.35,308.794 1201.46,307.721 1199.31,306.922C1197.04,306.075 1195.76,303.655 1196.35,301.3C1197.54,296.539 1202.64,290.446 1222.49,296.641C1247.55,304.462 1242.01,339.229 1240.25,355.941C1238.81,369.597 1238.12,379.363 1235.06,395.708C1234.59,398.296 1232.11,400.01 1229.52,399.539C1228.05,399.253 1226.34,398.972 1224.56,398.756C1221.99,398.49 1220.11,396.219 1220.31,393.644C1220.44,392.247 1220.64,390.553 1220.9,388.576C1220.96,388.069 1220.66,387.587 1220.18,387.416C1219.7,387.245 1219.16,387.431 1218.89,387.863C1215.11,393.869 1207.89,402.636 1199.01,400.338C1188.26,397.553 1190.86,354.787 1190.95,353.398C1190.95,353.374 1190.95,353.349 1190.95,353.325C1191.01,352.193 1192.38,326.634 1199.9,322.675C1207.59,318.626 1213.77,322.444 1219.8,322.524C1225.83,322.604 1228.17,323.126 1226.72,314.307C1225.48,306.803 1215.73,301.65 1212.68,307.453ZM1227.1,345.289C1227.2,343.862 1226.65,342.465 1225.61,341.485C1224.57,340.506 1223.14,340.048 1221.72,340.238C1220.32,340.409 1218.64,340.54 1216.69,340.562C1209.53,340.644 1207.28,347.715 1207.36,357.538C1207.44,367.361 1209.46,371.491 1214.81,371.749C1219.66,371.984 1225.83,364.691 1227.1,345.289ZM1251.2,402.456C1248.7,402.055 1246.95,399.774 1247.21,397.258C1247.96,390.022 1249.54,375.58 1251.19,365.644C1253.27,353.082 1253.38,337.164 1253.09,323.351C1253.08,322.613 1253.49,321.933 1254.15,321.606C1254.81,321.279 1255.6,321.364 1256.18,321.824C1258.22,323.478 1260.94,325.991 1263.38,329.273C1263.86,329.926 1264.17,330.692 1264.27,331.497C1264.39,332.8 1264.56,335.203 1264.58,338.718C1264.58,338.875 1264.7,339.004 1264.86,339.02C1265.01,339.036 1265.15,338.934 1265.19,338.781C1265.66,336.62 1266.41,334.739 1267.6,335.089C1270.15,335.834 1278.15,344.651 1282.06,358.738C1282.11,358.898 1282.04,359.067 1281.89,359.146C1281.75,359.226 1281.56,359.195 1281.45,359.072C1279.03,356.413 1272.93,350.88 1270.84,359.779C1268.79,368.461 1264.08,390.243 1262.05,399.63C1261.52,402.107 1259.14,403.732 1256.64,403.33C1254.91,403.052 1252.93,402.734 1251.2,402.456Z" style="fill:white;"/>
                </g>
            </g>
        </g>
    </g>
</svg>
