<?xml version="1.0" encoding="UTF-8"?><svg id="uuid-699e8e4a-1c3c-492f-ac1b-eea65fb88242" xmlns="http://www.w3.org/2000/svg" viewBox="0 0 220.51 107.49"><path d="M24.8,75.89c-5.23,0-11.08-2.15-15.28-5.61l-.73-.6,5.38-7.35.81.63c3.64,2.84,6.74,4.1,10.06,4.1s5.2-1.32,5.2-3.63-3.47-3.73-7.14-5.13l-.52-.2c-5.35-2.01-11.5-5.22-11.5-12.21,0-7.51,6.06-12.56,15.07-12.56,4.79,0,9.32,1.63,13.46,4.84l.78.6-5.34,7.15-.8-.59c-3-2.2-5.43-3.18-7.88-3.18-3.01,0-4.73,1.2-4.73,3.28s3,3.21,6.48,4.47l.96.35c4.68,1.75,11.74,4.38,11.74,12.62,0,8.98-8.04,13-16.02,13Z" fill="#fff" stroke-width="0"/><path d="M46.93,74.94v-40.66h11.07v40.66h-11.07ZM52.5,29.51c-3.77,0-6.6-2.64-6.6-6.13s2.78-6.13,6.6-6.13,6.6,2.58,6.6,6.13-2.84,6.13-6.6,6.13Z" fill="#fff" stroke-width="0"/><path d="M113.78,74.94v-24.08c0-6.44-1.98-7.75-4.95-7.75-2.09,0-4.42,1.38-7.09,4.21v27.62h-11.07v-24.08c0-6.44-1.98-7.75-4.95-7.75-2.06,0-4.45,1.42-7.09,4.21v27.62h-11.07v-40.66h9.31l.57,4.35c2.8-2.68,6.5-5.3,11.37-5.3,5.19,0,8.79,2.03,10.97,6.18,3.19-3.21,7.09-6.18,12.14-6.18,5.9,0,12.93,2.84,12.93,16.36v25.24h-11.07Z" fill="#fff" stroke-width="0"/><path d="M133.92,90.24v-55.97h9.28l.58,3.44c2.8-2.18,6.74-4.39,11.17-4.39,10,0,16.21,7.92,16.21,20.68,0,14.36-8.8,21.88-17.5,21.88-2.97,0-5.94-1.05-8.85-3.12l.19,4.25v13.23s-11.07,0-11.07,0ZM144.98,63.71c2.74,2.21,5.17,2.68,6.75,2.68,5,0,8.1-4.71,8.1-12.29s-2.42-11.28-7.41-11.28c-2.4,0-4.7,1.17-7.44,3.77v17.11Z" fill="#fff" stroke-width="0"/><path d="M187.63,75.89c-6.49,0-9.78-4-9.78-11.89V17.34h11.07v47.13c0,1.25.36,2.02.95,2.02.38,0,.61,0,1.2-.13l1.03-.23,1.44,8.61-.75.3c-1.45.58-3.13.86-5.16.86Z" fill="#fff" stroke-width="0"/><path d="M199.17,74.94v-40.66h11.07v40.66h-11.07ZM204.74,29.51c-3.77,0-6.6-2.64-6.6-6.13s2.78-6.13,6.6-6.13,6.6,2.58,6.6,6.13-2.84,6.13-6.6,6.13Z" fill="#fff" stroke-width="0"/></svg>